<?xml version="1.0" encoding="UTF-8"?>
<svg xmlns="http://www.w3.org/2000/svg" xmlns:xlink="http://www.w3.org/1999/xlink" width="16px" height="20px" viewBox="0 0 16 20" version="1.1">
<g id="surface1">
<path style=" stroke:none;fill-rule:nonzero;fill:rgb(0%,0%,0%);fill-opacity:1;" d="M 15.976562 5.875 C 15.886719 5.660156 15.742188 5.46875 15.550781 5.324219 L 10.4375 0.414062 C 10.332031 0.285156 10.164062 0.207031 9.992188 0.207031 L 1.0625 0.207031 C 0.785156 0.203125 0.519531 0.3125 0.324219 0.503906 C 0.132812 0.699219 0.0234375 0.960938 0.0234375 1.230469 L 0.0234375 18.765625 C 0.0234375 19.039062 0.132812 19.296875 0.324219 19.492188 C 0.519531 19.683594 0.785156 19.792969 1.0625 19.789062 L 14.9375 19.789062 C 15.511719 19.789062 15.976562 19.332031 15.976562 18.765625 Z M 10.570312 2.210938 L 14.042969 5.417969 L 10.570312 5.417969 Z M 8.070312 18.648438 L 1.183594 18.648438 L 1.183594 1.347656 L 9.40625 1.347656 L 9.40625 5.984375 C 9.40625 6.304688 9.667969 6.5625 9.988281 6.5625 L 14.816406 6.5625 L 14.816406 18.648438 Z M 3.332031 8.65625 C 3.410156 8.566406 3.519531 8.515625 3.636719 8.515625 L 10.460938 8.515625 C 10.582031 8.515625 10.691406 8.566406 10.769531 8.652344 C 10.851562 8.742188 10.894531 8.855469 10.894531 8.972656 C 10.890625 9.089844 10.847656 9.203125 10.769531 9.289062 C 10.691406 9.378906 10.578125 9.429688 10.460938 9.429688 L 3.640625 9.429688 C 3.523438 9.429688 3.410156 9.378906 3.332031 9.292969 C 3.167969 9.105469 3.167969 8.828125 3.332031 8.640625 Z M 3.332031 15.152344 C 3.410156 15.066406 3.523438 15.015625 3.640625 15.011719 L 12.355469 15.011719 C 12.476562 15.015625 12.589844 15.066406 12.667969 15.152344 C 12.832031 15.339844 12.832031 15.617188 12.667969 15.804688 C 12.585938 15.890625 12.476562 15.941406 12.355469 15.941406 L 3.640625 15.941406 C 3.523438 15.941406 3.410156 15.890625 3.332031 15.804688 C 3.167969 15.617188 3.167969 15.339844 3.332031 15.152344 Z M 12.355469 11.765625 C 12.476562 11.765625 12.585938 11.820312 12.667969 11.90625 C 12.832031 12.09375 12.832031 12.371094 12.667969 12.558594 C 12.585938 12.644531 12.476562 12.695312 12.355469 12.695312 L 3.640625 12.695312 C 3.523438 12.695312 3.410156 12.644531 3.332031 12.558594 C 3.167969 12.371094 3.167969 12.09375 3.332031 11.90625 C 3.410156 11.820312 3.519531 11.769531 3.640625 11.765625 Z M 3.332031 5.40625 C 3.410156 5.320312 3.523438 5.269531 3.640625 5.265625 L 6.792969 5.265625 C 6.914062 5.269531 7.023438 5.316406 7.101562 5.40625 C 7.183594 5.492188 7.226562 5.609375 7.226562 5.722656 C 7.226562 5.84375 7.183594 5.953125 7.105469 6.042969 C 7.027344 6.132812 6.914062 6.183594 6.796875 6.183594 L 3.640625 6.183594 C 3.523438 6.183594 3.410156 6.132812 3.332031 6.042969 C 3.167969 5.859375 3.167969 5.582031 3.332031 5.394531 Z M 3.332031 5.40625 "/>
</g>
</svg>
